<?xml version="1.0" encoding="UTF-8" standalone="no"?>
<!-- Created with Inkscape (http://www.inkscape.org/) -->

<svg
   width="24.780373mm"
   height="25.25528mm"
   viewBox="0 0 24.780373 25.25528"
   version="1.1"
   id="svg5"
   inkscape:version="1.2.1 (9c6d41e410, 2022-07-14)"
   sodipodi:docname="loja.svg"
   xml:space="preserve"
   xmlns:inkscape="http://www.inkscape.org/namespaces/inkscape"
   xmlns:sodipodi="http://sodipodi.sourceforge.net/DTD/sodipodi-0.dtd"
   xmlns="http://www.w3.org/2000/svg"
   xmlns:svg="http://www.w3.org/2000/svg"><sodipodi:namedview
     id="namedview7"
     pagecolor="#ffffff"
     bordercolor="#000000"
     borderopacity="0.25"
     inkscape:showpageshadow="2"
     inkscape:pageopacity="0.0"
     inkscape:pagecheckerboard="0"
     inkscape:deskcolor="#d1d1d1"
     inkscape:document-units="mm"
     showgrid="false"
     inkscape:zoom="0.47660634"
     inkscape:cx="814.08904"
     inkscape:cy="1737.2828"
     inkscape:window-width="1366"
     inkscape:window-height="715"
     inkscape:window-x="-8"
     inkscape:window-y="-8"
     inkscape:window-maximized="1"
     inkscape:current-layer="layer1" /><defs
     id="defs2" /><g
     inkscape:label="Camada 1"
     inkscape:groupmode="layer"
     id="layer1"
     transform="translate(-63.215318,-337.54003)"><path
       d="m 70.667362,362.79529 q -0.941562,0 -1.605338,-0.67049 -0.663799,-0.67051 -0.663799,-1.61202 0,-0.94155 0.670496,-1.60535 0.670512,-0.66378 1.612039,-0.66378 0.941559,0 1.605335,0.67049 0.663776,0.67051 0.663776,1.61202 0,0.94158 -0.67047,1.60535 -0.670512,0.66378 -1.612039,0.66378 z m 12.643441,0 q -0.94155,0 -1.60535,-0.67049 -0.66377,-0.67051 -0.66377,-1.61202 0,-0.94155 0.67048,-1.60535 0.67051,-0.66378 1.61202,-0.66378 0.94159,0 1.60536,0.67049 0.66377,0.67051 0.66377,1.61202 0,0.94158 -0.67048,1.60535 -0.67052,0.66378 -1.61203,0.66378 z M 68.082146,340.0371 h 18.619817 q 0.72584,0 1.10455,0.66378 0.37871,0.66379 -7e-4,1.32756 l -4.26717,7.6809 q -0.34769,0.60055 -0.90271,0.96404 -0.55502,0.36351 -1.21505,0.36351 h -9.57742 l -1.770067,3.28728 h 15.519817 v 1.89653 H 70.35786 q -1.327542,0 -1.912308,-0.88503 -0.584758,-0.88505 0.0167,-1.99135 l 2.023044,-3.72981 -4.804494,-10.17797 H 63.21532 v -1.89651 h 3.698195 z"
       id="path1142"
       style="fill:#ff6600;fill-opacity:1;stroke-width:0.0132292" /></g></svg>
