<?xml version="1.0" encoding="UTF-8" standalone="no"?>
<!-- Created with Inkscape (http://www.inkscape.org/) -->

<svg
   width="23.45545mm"
   height="29.319336mm"
   viewBox="0 0 23.45545 29.319336"
   version="1.1"
   id="svg5"
   inkscape:version="1.2.1 (9c6d41e410, 2022-07-14)"
   sodipodi:docname="loja.svg"
   xml:space="preserve"
   xmlns:inkscape="http://www.inkscape.org/namespaces/inkscape"
   xmlns:sodipodi="http://sodipodi.sourceforge.net/DTD/sodipodi-0.dtd"
   xmlns="http://www.w3.org/2000/svg"
   xmlns:svg="http://www.w3.org/2000/svg"><sodipodi:namedview
     id="namedview7"
     pagecolor="#ffffff"
     bordercolor="#000000"
     borderopacity="0.25"
     inkscape:showpageshadow="2"
     inkscape:pageopacity="0.0"
     inkscape:pagecheckerboard="0"
     inkscape:deskcolor="#d1d1d1"
     inkscape:document-units="mm"
     showgrid="false"
     inkscape:zoom="0.47660634"
     inkscape:cx="814.08904"
     inkscape:cy="1737.2828"
     inkscape:window-width="1366"
     inkscape:window-height="715"
     inkscape:window-x="-8"
     inkscape:window-y="-8"
     inkscape:window-maximized="1"
     inkscape:current-layer="layer1" /><defs
     id="defs2" /><g
     inkscape:label="Camada 1"
     inkscape:groupmode="layer"
     id="layer1"
     transform="translate(27.271653,-333.27447)"><path
       d="m -25.072703,362.59379 q -0.87958,0 -1.53927,-0.6597 -0.65968,-0.65967 -0.65968,-1.53925 v -19.05755 q 0,-0.87958 0.65968,-1.53928 0.65969,-0.65967 1.53927,-0.65967 h 4.03141 v -0.36649 q 0,-2.3089 1.59424,-3.90314 1.59421,-1.59424 3.90311,-1.59424 2.30891,0 3.90315,1.59424 1.59424,1.59424 1.59424,3.90314 v 0.36649 h 4.0313995 q 0.87958,0 1.53926,0.65967 0.65969,0.6597 0.65969,1.53928 v 19.05755 q 0,0.87958 -0.65969,1.53925 -0.65968,0.6597 -1.53926,0.6597 z m 6.23036,-23.45545 h 6.59684 v -0.36649 q 0,-1.39267 -0.95288,-2.34555 -0.95288,-0.95288 -2.34556,-0.95288 -1.39267,0 -2.34552,0.95288 -0.95288,0.95288 -0.95288,2.34555 z m 7.6963,6.59684 q 0.47644,0 0.78796,-0.31152 0.31153,-0.31152 0.31153,-0.78797 v -3.2984 h -2.19895 v 3.2984 q 0,0.47645 0.31152,0.78797 0.3115,0.31152 0.78794,0.31152 z m -8.79579,0 q 0.47644,0 0.78797,-0.31152 0.31152,-0.31152 0.31152,-0.78797 v -3.2984 h -2.19895 v 3.2984 q 0,0.47645 0.31152,0.78797 0.3115,0.31152 0.78794,0.31152 z"
       id="path820-8"
       style="fill:#ff6600;stroke-width:0.0132292"
       inkscape:export-filename="..\..\..\Ãrea de Trabalho\loja\edicao\favicon.png"
       inkscape:export-xdpi="34.652927"
       inkscape:export-ydpi="34.652927" /></g></svg>
