<?xml version="1.0" encoding="UTF-8" standalone="no"?>
<!-- Created with Inkscape (http://www.inkscape.org/) -->

<svg
   width="46.327248mm"
   height="57.909058mm"
   viewBox="0 0 46.327248 57.909058"
   version="1.1"
   id="svg5"
   inkscape:version="1.2.1 (9c6d41e410, 2022-07-14)"
   sodipodi:docname="loja.svg"
   xml:space="preserve"
   xmlns:inkscape="http://www.inkscape.org/namespaces/inkscape"
   xmlns:sodipodi="http://sodipodi.sourceforge.net/DTD/sodipodi-0.dtd"
   xmlns="http://www.w3.org/2000/svg"
   xmlns:svg="http://www.w3.org/2000/svg"><sodipodi:namedview
     id="namedview7"
     pagecolor="#ffffff"
     bordercolor="#000000"
     borderopacity="0.25"
     inkscape:showpageshadow="2"
     inkscape:pageopacity="0.0"
     inkscape:pagecheckerboard="0"
     inkscape:deskcolor="#d1d1d1"
     inkscape:document-units="mm"
     showgrid="false"
     inkscape:zoom="0.47660634"
     inkscape:cx="814.08904"
     inkscape:cy="1737.2828"
     inkscape:window-width="1366"
     inkscape:window-height="715"
     inkscape:window-x="-8"
     inkscape:window-y="-8"
     inkscape:window-maximized="1"
     inkscape:current-layer="layer1" /><defs
     id="defs2" /><g
     inkscape:label="Camada 1"
     inkscape:groupmode="layer"
     id="layer1"
     transform="translate(-6.3143145,-313.77505)"><g
       id="g1121"
       transform="matrix(0.49599247,0,0,0.49599247,-11.686187,149.60929)"
       style="stroke-width:2.01616"><path
         d="m 45.048424,447.73835 q -3.502615,0 -6.129632,-2.62702 -2.626907,-2.62691 -2.626907,-6.12952 v -75.89004 q 0,-3.50262 2.626907,-6.12964 2.627017,-2.6269 6.129632,-2.6269 h 16.053673 v -1.45941 q 0,-9.19439 6.348505,-15.5429 6.348394,-6.3485 15.542787,-6.3485 9.194394,0 15.542898,6.3485 6.348503,6.34851 6.348503,15.5429 v 1.45941 h 16.05367 q 3.50262,0 6.12953,2.6269 2.62701,2.62702 2.62701,6.12964 v 75.89004 q 0,3.50261 -2.62701,6.12952 -2.62691,2.62702 -6.12953,2.62702 z m 24.810212,-93.40312 h 26.269617 v -1.45941 q 0,-5.54582 -3.794519,-9.34034 -3.794519,-3.79452 -9.340345,-3.79452 -5.545826,0 -9.340234,3.79452 -3.794519,3.79452 -3.794519,9.34034 z m 30.647834,26.26961 q 1.89726,0 3.13779,-1.24053 1.24053,-1.24053 1.24053,-3.13779 v -13.13475 h -8.756537 v 13.13475 q 0,1.89726 1.240532,3.13779 1.240423,1.24053 3.137685,1.24053 z m -35.026159,0 q 1.89726,0 3.137792,-1.24053 1.240533,-1.24053 1.240533,-3.13779 v -13.13475 h -8.756539 v 13.13475 q 0,1.89726 1.240533,3.13779 1.240422,1.24053 3.137681,1.24053 z"
         id="path820"
         style="fill:#ff6600;stroke-width:0.0266722" /><text
         xml:space="preserve"
         style="font-weight:bold;font-size:27.9758px;line-height:18.6504px;font-family:Roboto;-inkscape-font-specification:'Roboto Bold';text-align:center;text-anchor:middle;fill:#ffffff;fill-rule:evenodd;stroke-width:4.03234;stroke-miterlimit:4.4"
         x="83.164597"
         y="412.89935"
         id="text888"><tspan
           sodipodi:role="line"
           id="tspan886"
           style="font-size:27.9758px;fill:#ffffff;stroke-width:4.03234"
           x="83.164597"
           y="412.89935">Store</tspan></text><text
         xml:space="preserve"
         style="font-weight:bold;font-size:14.7828px;line-height:9.85522px;font-family:Roboto;-inkscape-font-specification:'Roboto Bold';text-align:center;text-anchor:middle;fill:#ffffff;fill-rule:evenodd;stroke-width:4.03234;stroke-miterlimit:4.4"
         x="83.257301"
         y="433.92285"
         id="text888-2"><tspan
           sodipodi:role="line"
           id="tspan886-8"
           style="font-size:14.7828px;fill:#ffffff;stroke-width:4.03234"
           x="83.257301"
           y="433.92285">2024</tspan></text></g></g></svg>
